<?xml version="1.0" encoding="utf-8"?>
<!-- Generator: Adobe Illustrator 22.0.0, SVG Export Plug-In . SVG Version: 6.00 Build 0)  -->
<svg version="1.1" id="Layer_1" xmlns="http://www.w3.org/2000/svg" xmlns:xlink="http://www.w3.org/1999/xlink" x="0px" y="0px"
	 viewBox="0 0 841.9 1190.6" style="enable-background:new 0 0 841.9 1190.6;" xml:space="preserve">
<path d="M284.9,659.9c14.7,10,30.8,13.8,47.4,13c18.9-0.9,37.7-3.7,56.6-5.7c2.3-0.2,4.7-0.6,6.8-1.4c2.7-1.1,5.2-2.7,7.5-3.9
	c3.8-0.2,7.7,0,11.4-0.8c9.6-2,19.1-4.4,29.3-6.8c-2.9-3.7-5.7-7.2-9.1-11.4c-2,3.3-3.7,6.3-5.5,9.2c-3.3,5.6-6.6,5.9-10.5,0.8
	c-0.5-0.7-1.6-1.7-2.2-1.5c-4.2,1.1-8.6-0.6-12.7,2.8c-5.6,4.6-11.4,2.7-17-3.9c-4.4,0.4-8.5,0.7-12.5,1.3c-1.4,0.2-2.6,1.2-3.8,2.1
	c-7.8,5.4-16.1,2.7-19.1-6.3c-3.3-9.9,2.9-27.4,12.5-31.3c4.5-1.8,10.7-1.1,15.7,0.2c2.3,0.6,4.9,5.4,5,8.4c0.2,5-1.2,10-2.5,15
	c-0.6,2.4-2.4,4.6-3.8,7.3c4.5,0.4,6.8-0.6,6.7-5.2c-0.1-10,4.2-18.1,11.5-24.5c1.3-1.1,3.9-0.8,5.9-1.1c1.1-0.2,2.2-0.1,3.2-0.4
	c6.8-2.1,12.2,0.2,13.1,7.2c0.6,5.2-0.7,10.7-1.8,16c-0.6,2.6-2.5,5-4.1,7.9c4.1,1,5.1-0.8,6.2-4.2c5.3-17.6,10.9-35.2,16.4-52.7
	c9.3,2.9,10.5,5.7,7.2,13.1c-5.1,11.4-10.1,22.8-15,34.3c-1,2.2-1.3,4.7-1.5,7.3c8.4-10.4,14.9-22.5,26.7-29.7
	c0.4,0.3,0.9,0.7,1.3,1c-1.6,2.1-3.1,4.2-4.8,6.2c-8.5,10-8.6,10.8-2,22.2c1.1,1.8,2.4,3.5,3.9,5.7c3.8-12.1,7.1-23.5,10.9-34.7
	c3.8-11.2,8.1-22.1,12.2-33.2c8.7,2.7,10,5.8,6.7,13.6c-6.9,16.2-13.7,32.5-20.4,48.9c-1.2,3-1.5,6.3-2.3,9.6
	c5.5-0.2,10.4-5.6,10-10.6c-0.7-10.8,3.7-19.4,11.4-26.6c1.6-1.5,3.4-3.4,6-1.1c0.5,0.4,1.8,0.1,2.7-0.1c8.2-2.4,13.9,0.9,14,9.4
	c0,5.4-2.2,10.9-3.6,16.3c-0.5,1.7-1.7,3.2-2.6,4.8c5,1.2,6.5,0.2,6.5-4.7c0-10,4.4-17.9,11.6-24.5c1.6-1.5,3.4-3.5,6-1.1
	c0.6,0.5,2.1,0,3.2-0.3c7.1-2.2,12.7,0.7,13.3,8.2c0.4,5.1-1.1,10.4-2.3,15.5c-0.6,2.5-2.3,4.7-3.7,7.3c4.5,1.3,5.1-1.2,6-4.4
	c5.3-17.5,10.8-34.9,16.3-52.2c9.1,2.3,10.6,5.5,7.4,12.8c-5.1,11.4-10.1,22.8-15,34.3c-1,2.4-1.4,5-1.5,7.8
	c7.7-11.2,15.9-21.8,26.4-30.2c0.5,0.4,0.9,0.8,1.4,1.2c-2,2.4-3.9,4.8-5.9,7.2c-7.6,9.2-7.7,10.8-1.1,21c0.8,1.3,1.8,2.4,2.5,3.7
	c2.6,4.7,6.3,7.2,11.9,7.5c4.6,0.3,9.1,1.9,13.5,3.4c2.6,0.9,5.6,2.3,7.1,4.4c1.8,2.6,2.1,6.2,3,9.3c-2.8,0.6-6,2.5-8.2,1.7
	c-6.9-2.7-13.7-5.8-19.8-9.9c-3.9-2.6-7.1-3.6-11.5-2.5c-19.3,5.2-38.5,10.7-58,15.4c-12.8,3-25.8,5.3-38.8,7
	c-15.5,2.1-30.9,0.9-45.9-4.3c-1.4-0.5-3.1-0.7-4.2-1.7c-7.6-6.6-15.6-4.3-24.2-2.2c-14.4,3.4-29,6.1-43.7,8.2
	c-15.7,2.2-31.3,1-46.3-4.6c-4.5-1.7-8.8-4.1-12.7-6.8C285.6,670.2,283.3,666.2,284.9,659.9z M535.1,652.3
	c-5.3-0.4-10.4-0.5-15.4,2.8c-2.4,1.6-7.3,0.3-10.7-0.7c-2.1-0.6-3.5-3.3-5-4.8c-6.9,2.7-14.5,2-20.7,6.3c-1.5,1-4.7,0.5-6.7-0.4
	c-2.5-1-4.5-3.1-7-5c-1.1,1.6-2.1,3.2-3.4,5.1c1.9,0.7,3.2,0.9,4.3,1.6c4.6,2.6,10.8,4.2,13.1,8.1c3.1,5.2,6.3,5.1,10.8,4.1
	c21.9-4.8,43.9-9.6,65.8-14.4c0.5-0.1,1-0.6,1.7-1.1c-3.1-3.8-5.9-7.4-9.3-11.6c-1.7,3.2-2.8,5.9-4.6,8.2c-1.7,2.2-3.8,5-6.2,5.5
	C539.8,656.5,537.3,653.7,535.1,652.3z M422.7,667.8c0.1,0.5,0.1,1.1,0.2,1.6c14.3,4.4,28.8,4.3,43.6,2.8c-4.3-3.8-8.7-7-13.1-10.1
	c-0.8-0.5-1.9-0.9-2.8-0.8C441.3,663.4,432,665.6,422.7,667.8z M519.9,650.8c-2.4-7.1-4.3-13-6.3-18.9c-3.7,3.9-5.5,8.7-4.5,14
	c0.4,2.2,2.4,5.1,4.4,5.8C515.5,652.5,518.4,651.1,519.9,650.8z M367.8,650.9c-2.3-7-4.3-12.9-6.4-19.2c-3.3,3.9-5.4,8.5-4.4,13.7
	c0.4,2.4,2.3,5.4,4.4,6.3C363.2,652.6,366.2,651.1,367.8,650.9z M395.8,631.8c-3.3,4-5.3,8.6-4.3,13.9c0.4,2.2,2.3,5.1,4.2,5.9
	c2,0.8,4.9-0.5,6.7-0.7C400,644,398,638.2,395.8,631.8z M485.5,651c-2.5-7.3-4.4-13.1-6.4-19c-3.5,3.5-5.3,8.1-4.6,13.1
	c0.4,2.4,2.2,5.5,4.2,6.5C480.7,652.5,483.7,651.2,485.5,651z M528.9,625.2c-7.1,4.1-8.8,14.3-3.4,19.6
	C529.1,638.7,530.8,632.7,528.9,625.2z M376.7,625.2c-7,3.9-8.8,14-3.4,19.8C376.9,638.8,378.6,632.7,376.7,625.2z M410.5,625.7
	c-6.3,3.3-8.1,13.5-3.3,18.8C411.9,639.7,413.4,630.9,410.5,625.7z M493.7,625.7c-6.4,3.2-8.2,14-3.2,18.7
	C495.1,639.2,496.5,631,493.7,625.7z M581.6,660.8c-0.4,1-0.9,1.9-1.3,2.9c5,2.6,9.9,5.3,15,7.7c1.1,0.5,2.9-0.6,4.4-1
	c-0.7-1.3-1.1-3.5-2.2-3.9C592.3,664.3,586.9,662.6,581.6,660.8z M462.7,661.6c6,7.9,15.5,11.5,19.8,7.7
	C477.6,663.1,470.6,662.5,462.7,661.6z"/>
<path d="M342.1,616.4c9.6,5.8,11,10.3,6.2,20.4c-1.7,3.4-3.9,6.6-5.8,9.9c-0.8,1.4-1.2,3.1-1.8,4.7c-1.7,1.2-3.9,2.6-5.8,4.2
	c-5,4.3-10.3,8-17.4,7.6c-1.8-0.1-4-0.2-5.3-1.2c-2.1-1.6-4.7-3.8-4.9-5.9c-0.2-1.6,2.8-4.7,4.9-5.2c4.9-1.2,10.2-1.8,15.3-1.7
	c3.9,0.1,6.4-1,8-4.4c2.3-4.6,4.7-9.2,6.8-13.9c1.5-3.2,0.3-6.3-3.2-6.2c-8.9,0.1-17.8,0.9-26.7,1.8c-1,0.1-2.1,2.4-2.7,3.8
	c-1.9,4.3-3.8,8.5-5.4,12.9c-1.6,4.3-2.9,8.8-4.4,13.6c-4.1-1.1-6-3.8-5.4-8c0.7-4.6,1.7-9.2,3.1-13.6c1.1-3.5,1.4-6.4-0.8-9.8
	c-2.9-4.6-2-5.6,3.1-7.3c2-0.7,4.3-2.4,5.3-4.3c1.9-3.6,2.9-7.5,4.2-11.4c-0.6-0.5-1.2-1-1.8-1.4c-5.2,4.2-10.5,8.3-15.5,12.8
	c-3.3,2.9-4.6,3.1-6.7-0.7c-2.3-4.2-1.7-8.1,2-11.2c10.5-9,22.5-14.4,36.4-14.2C342.1,588,349.6,599.7,342.1,616.4z M310.2,601.1
	c6.9,2.8,10,6.9,6.6,13.9c5.5,0,10.2-0.4,14.8,0.1c4.2,0.5,6.1-1.2,7.3-4.9c2.1-6.5-0.7-11.6-7.5-13.2
	C324.3,595.4,317.8,597.2,310.2,601.1z M328.7,651.4c-6.4,1.3-11.8,2.3-18.5,3.6C317,659.5,323.7,658,328.7,651.4z"/>
</svg>
